# xmcd
#
# Track frame offsets:
#       180
#       8315
#       25160
#       37955
#       49574
#       63799
#       79313
#       93216
#       103673
#       114284
#       126343
#       139768
#       147669
#       157990
#       167951
#       182328
#       194524
#       211760
#       223505
#       233537
#       249160
#       262563
#       278812
#
# Disc length: 3877 seconds
#
# Revision: 2
# Processed by: cddbd v1.5.2PL0 Copyright (c) Steve Scherf et al.
# Submitted via: FreeDbEdit v0.1
#
DISCID=240f2317
DTITLE=Tennessee - Country Feeling [CD1]
DYEAR=2004
DGENRE=Country
TTITLE0=Da Doo Ron Ron
TTITLE1=Take Me Home Country Roads
TTITLE2=Ruby Dont Take Your Love Too Town
TTITLE3=Hand Me Down My Walking Game
TTITLE4=It's All Ower Now
TTITLE5=Proud Mary
TTITLE6=Con Everybody
TTITLE7=Bye Bye Love
TTITLE8=Summertimes Blues
TTITLE9=Ginny Come Lately
TTITLE10=Rocking Over the Alpen
TTITLE11=Sheila
TTITLE12=Cottonfields
TTITLE13=Hello Mary Lou
TTITLE14=Darling
TTITLE15=Bottle of Wine
TTITLE16=Achy Breaky Heart
TTITLE17=Bad Moon Rising
TTITLE18=Dandy
TTITLE19=Death of a Clown
TTITLE20=Me an You and a Dog Named Boo
TTITLE21=One Way Wind
TTITLE22=Oh Lonesome Me
EXTD=
EXTT0=
EXTT1=
EXTT2=
EXTT3=
EXTT4=
EXTT5=
EXTT6=
EXTT7=
EXTT8=
EXTT9=
EXTT10=
EXTT11=
EXTT12=
EXTT13=
EXTT14=
EXTT15=
EXTT16=
EXTT17=
EXTT18=
EXTT19=
EXTT20=
EXTT21=
EXTT22=
PLAYORDER=
